<!-- Generated by IcoMoon.io -->
<svg version="1.1" xmlns="http://www.w3.org/2000/svg" width="32" height="32" viewBox="0 0 32 32">
<path d="M8.739 12.049h-8.862c-0.272 0-0.492 0.211-0.492 0.472v2.834c0 0.261 0.22 0.472 0.492 0.472h0.492v10.864c0 0.261 0.22 0.472 0.492 0.472h6.892c0.272 0 0.492-0.211 0.492-0.472v-10.864h0.492c0.272 0 0.492-0.211 0.492-0.472v-2.834c0-0.261-0.22-0.472-0.492-0.472zM3.323 21.023v-0.945h2.954v-0.945h-2.954v-0.945h3.938v6.14h-3.938v-2.362h0.985v-0.945h-0.985zM7.262 17.244h-4.431c-0.272 0-0.492 0.211-0.492 0.472v7.085c0 0.261 0.22 0.472 0.492 0.472h4.431v0.945h-5.908v-10.391h5.908v1.417zM8.246 14.883h-7.877v-1.889h7.877v1.889z"></path>
<path d="M15.262 12.137v-3.453c0-0.269-0.22-0.486-0.492-0.486h-0.492v-2.431h0.985v-0.973h-5.415v0.973h3.446v2.431h-0.492c-0.272 0-0.492 0.217-0.492 0.486v3.453c-1.122 0.226-1.969 1.208-1.969 2.382v12.157c0 0.269 0.22 0.486 0.492 0.486h5.908c0.272 0 0.492-0.217 0.492-0.486v-12.157c0-1.174-0.847-2.156-1.969-2.382zM13.293 9.17h0.985v2.918h-0.985v-2.918zM12.8 13.061h1.969c0.814 0 1.477 0.655 1.477 1.459v0.486h-4.923v-0.486c0-0.804 0.663-1.459 1.477-1.459zM16.246 24.245h-4.923v-0.973h1.969v-0.973h-1.969v-6.322h4.923v8.267zM11.323 26.191v-0.973h4.923v0.973h-4.923z"></path>
<path d="M27.846 11.444h-8.308c-0.255 0-0.462 0.213-0.462 0.476v14.767c0 0.263 0.206 0.476 0.462 0.476h8.308c0.255 0 0.462-0.213 0.462-0.476v-14.767c0-0.263-0.206-0.476-0.462-0.476zM27.385 26.211h-7.385v-13.814h7.385v13.814z"></path>
<path d="M6.77 21.117h-1.231v0.605h1.231v-0.605z"></path>
<path d="M15.385 22.326h-1.231v1.209h1.231v-1.209z"></path>
<path d="M13.846 21.117c1.188 0 2.154-0.949 2.154-2.116s-0.966-2.116-2.154-2.116c-1.188 0-2.154 0.949-2.154 2.116s0.966 2.116 2.154 2.116zM13.846 17.943c0.594 0 1.077 0.475 1.077 1.058s-0.483 1.058-1.077 1.058c-0.594 0-1.077-0.475-1.077-1.058s0.483-1.058 1.077-1.058z"></path>
<path d="M22.539 16.281h2.308c0.891 0 1.615-0.678 1.615-1.511s-0.725-1.511-1.615-1.511h-2.308c-0.891 0-1.615 0.678-1.615 1.511s0.725 1.511 1.615 1.511zM25.539 14.769c0 0.357-0.311 0.648-0.692 0.648h-0.692v-1.296h0.692c0.382 0 0.692 0.291 0.692 0.648zM22.539 14.121h0.692v1.296h-0.692c-0.382 0-0.692-0.291-0.692-0.648s0.311-0.648 0.692-0.648z"></path>
<path d="M22.539 21.117h2.308c0.891 0 1.615-0.814 1.615-1.814s-0.725-1.814-1.615-1.814h-2.308c-0.891 0-1.615 0.814-1.615 1.814s0.725 1.814 1.615 1.814zM25.539 19.304c0 0.429-0.311 0.777-0.692 0.777h-0.692v-1.555h0.692c0.382 0 0.692 0.349 0.692 0.777zM22.539 18.526h0.692v1.555h-0.692c-0.382 0-0.692-0.349-0.692-0.777s0.311-0.777 0.692-0.777z"></path>
<path d="M22.539 25.35h2.308c0.891 0 1.615-0.814 1.615-1.814s-0.725-1.814-1.615-1.814h-2.308c-0.891 0-1.615 0.814-1.615 1.814s0.725 1.814 1.615 1.814zM25.539 23.536c0 0.429-0.311 0.777-0.692 0.777h-0.692v-1.555h0.692c0.382 0 0.692 0.349 0.692 0.777zM22.539 22.758h0.692v1.555h-0.692c-0.382 0-0.692-0.349-0.692-0.777s0.311-0.777 0.692-0.777z"></path>
</svg>
